<?xml version="1.0" encoding="utf-8" standalone="no"?>
<!DOCTYPE svg PUBLIC "-//W3C//DTD SVG 1.1//EN"
  "http://www.w3.org/Graphics/SVG/1.1/DTD/svg11.dtd">
<svg xmlns:xlink="http://www.w3.org/1999/xlink" width="249.89pt" height="184.267969pt" viewBox="0 0 249.89 184.267969" xmlns="http://www.w3.org/2000/svg" version="1.1">
 <metadata>
  <rdf:RDF xmlns:dc="http://purl.org/dc/elements/1.1/" xmlns:cc="http://creativecommons.org/ns#" xmlns:rdf="http://www.w3.org/1999/02/22-rdf-syntax-ns#">
   <cc:Work>
    <dc:type rdf:resource="http://purl.org/dc/dcmitype/StillImage"/>
    <dc:date>2026-05-11T17:36:20.179989</dc:date>
    <dc:format>image/svg+xml</dc:format>
    <dc:creator>
     <cc:Agent>
      <dc:title>Matplotlib v3.10.8, https://matplotlib.org/</dc:title>
     </cc:Agent>
    </dc:creator>
   </cc:Work>
  </rdf:RDF>
 </metadata>
 <defs>
  <style type="text/css">*{stroke-linejoin: round; stroke-linecap: butt}</style>
 </defs>
 <g id="figure_1">
  <g id="patch_1">
   <path d="M 0 184.267969 
L 249.89 184.267969 
L 249.89 0 
L 0 0 
z
" style="fill: #ffffff"/>
  </g>
  <g id="axes_1">
   <g id="patch_2">
    <path d="M 23.70625 161.20375 
L 248.45 161.20375 
L 248.45 1.44 
L 23.70625 1.44 
z
" style="fill: #ffffff"/>
   </g>
   <g id="matplotlib.axis_1">
    <g id="xtick_1">
     <g id="line2d_1">
      <defs>
       <path id="m124ec9ad37" d="M 0 0 
L 0 2.5 
" style="stroke: #000000; stroke-width: 0.5"/>
      </defs>
      <g>
       <use xlink:href="#m124ec9ad37" x="23.70625" y="161.20375" style="stroke: #000000; stroke-width: 0.5"/>
      </g>
     </g>
     <g id="text_1">
      <text style="font-size: 7px; font-family: 'Times New Roman', 'Times', 'STIXGeneral', serif; text-anchor: middle" x="23.70625" y="170.064375" transform="rotate(-0 23.70625 170.064375)">0.0</text>
     </g>
    </g>
    <g id="xtick_2">
     <g id="line2d_2">
      <g>
       <use xlink:href="#m124ec9ad37" x="61.414933" y="161.20375" style="stroke: #000000; stroke-width: 0.5"/>
      </g>
     </g>
     <g id="text_2">
      <text style="font-size: 7px; font-family: 'Times New Roman', 'Times', 'STIXGeneral', serif; text-anchor: middle" x="61.414933" y="170.064375" transform="rotate(-0 61.414933 170.064375)">2.5</text>
     </g>
    </g>
    <g id="xtick_3">
     <g id="line2d_3">
      <g>
       <use xlink:href="#m124ec9ad37" x="99.123616" y="161.20375" style="stroke: #000000; stroke-width: 0.5"/>
      </g>
     </g>
     <g id="text_3">
      <text style="font-size: 7px; font-family: 'Times New Roman', 'Times', 'STIXGeneral', serif; text-anchor: middle" x="99.123616" y="170.064375" transform="rotate(-0 99.123616 170.064375)">5.0</text>
     </g>
    </g>
    <g id="xtick_4">
     <g id="line2d_4">
      <g>
       <use xlink:href="#m124ec9ad37" x="136.832299" y="161.20375" style="stroke: #000000; stroke-width: 0.5"/>
      </g>
     </g>
     <g id="text_4">
      <text style="font-size: 7px; font-family: 'Times New Roman', 'Times', 'STIXGeneral', serif; text-anchor: middle" x="136.832299" y="170.064375" transform="rotate(-0 136.832299 170.064375)">7.5</text>
     </g>
    </g>
    <g id="xtick_5">
     <g id="line2d_5">
      <g>
       <use xlink:href="#m124ec9ad37" x="174.540982" y="161.20375" style="stroke: #000000; stroke-width: 0.5"/>
      </g>
     </g>
     <g id="text_5">
      <text style="font-size: 7px; font-family: 'Times New Roman', 'Times', 'STIXGeneral', serif; text-anchor: middle" x="174.540982" y="170.064375" transform="rotate(-0 174.540982 170.064375)">10.0</text>
     </g>
    </g>
    <g id="xtick_6">
     <g id="line2d_6">
      <g>
       <use xlink:href="#m124ec9ad37" x="212.249664" y="161.20375" style="stroke: #000000; stroke-width: 0.5"/>
      </g>
     </g>
     <g id="text_6">
      <text style="font-size: 7px; font-family: 'Times New Roman', 'Times', 'STIXGeneral', serif; text-anchor: middle" x="212.249664" y="170.064375" transform="rotate(-0 212.249664 170.064375)">12.5</text>
     </g>
    </g>
    <g id="text_7">
     <text style="font-size: 8px; font-family: 'Times New Roman', 'Times', 'STIXGeneral', serif; text-anchor: middle" x="136.078125" y="181.116719" transform="rotate(-0 136.078125 181.116719)">time (s)</text>
    </g>
   </g>
   <g id="matplotlib.axis_2">
    <g id="ytick_1">
     <g id="line2d_7">
      <defs>
       <path id="m29853d9123" d="M 0 0 
L -2.5 0 
" style="stroke: #000000; stroke-width: 0.5"/>
      </defs>
      <g>
       <use xlink:href="#m29853d9123" x="23.70625" y="161.20375" style="stroke: #000000; stroke-width: 0.5"/>
      </g>
     </g>
     <g id="text_8">
      <text style="font-size: 7px; font-family: 'Times New Roman', 'Times', 'STIXGeneral', serif; text-anchor: end" x="19.70625" y="163.634063" transform="rotate(-0 19.70625 163.634063)">0</text>
     </g>
    </g>
    <g id="ytick_2">
     <g id="line2d_8">
      <g>
       <use xlink:href="#m29853d9123" x="23.70625" y="130.791209" style="stroke: #000000; stroke-width: 0.5"/>
      </g>
     </g>
     <g id="text_9">
      <text style="font-size: 7px; font-family: 'Times New Roman', 'Times', 'STIXGeneral', serif; text-anchor: end" x="19.70625" y="133.221521" transform="rotate(-0 19.70625 133.221521)">3</text>
     </g>
    </g>
    <g id="ytick_3">
     <g id="line2d_9">
      <g>
       <use xlink:href="#m29853d9123" x="23.70625" y="100.378667" style="stroke: #000000; stroke-width: 0.5"/>
      </g>
     </g>
     <g id="text_10">
      <text style="font-size: 7px; font-family: 'Times New Roman', 'Times', 'STIXGeneral', serif; text-anchor: end" x="19.70625" y="102.80898" transform="rotate(-0 19.70625 102.80898)">6</text>
     </g>
    </g>
    <g id="ytick_4">
     <g id="line2d_10">
      <g>
       <use xlink:href="#m29853d9123" x="23.70625" y="69.966126" style="stroke: #000000; stroke-width: 0.5"/>
      </g>
     </g>
     <g id="text_11">
      <text style="font-size: 7px; font-family: 'Times New Roman', 'Times', 'STIXGeneral', serif; text-anchor: end" x="19.70625" y="72.396438" transform="rotate(-0 19.70625 72.396438)">9</text>
     </g>
    </g>
    <g id="ytick_5">
     <g id="line2d_11">
      <g>
       <use xlink:href="#m29853d9123" x="23.70625" y="39.553584" style="stroke: #000000; stroke-width: 0.5"/>
      </g>
     </g>
     <g id="text_12">
      <text style="font-size: 7px; font-family: 'Times New Roman', 'Times', 'STIXGeneral', serif; text-anchor: end" x="19.70625" y="41.983897" transform="rotate(-0 19.70625 41.983897)">12</text>
     </g>
    </g>
    <g id="ytick_6">
     <g id="line2d_12">
      <g>
       <use xlink:href="#m29853d9123" x="23.70625" y="9.141043" style="stroke: #000000; stroke-width: 0.5"/>
      </g>
     </g>
     <g id="text_13">
      <text style="font-size: 7px; font-family: 'Times New Roman', 'Times', 'STIXGeneral', serif; text-anchor: end" x="19.70625" y="11.571355" transform="rotate(-0 19.70625 11.571355)">15</text>
     </g>
    </g>
    <g id="text_14">
     <text style="font-size: 8px; font-family: 'Times New Roman', 'Times', 'STIXGeneral', serif; text-anchor: middle" x="6.995" y="81.321875" transform="rotate(-90 6.995 81.321875)">distance (m)</text>
    </g>
   </g>
   <g id="line2d_13">
    <path d="M 23.70625 107.285094 
L 26.722945 107.467445 
L 29.739639 107.912753 
L 32.756334 108.639607 
L 35.773029 109.669285 
L 38.789723 111.018861 
L 41.806418 112.705109 
L 44.823112 114.725429 
L 47.839807 117.077801 
L 50.856502 119.756103 
L 53.873196 122.757963 
L 64.431628 133.494628 
L 70.465017 139.359051 
L 74.990059 143.265173 
L 78.006753 145.780229 
L 81.023448 147.995488 
L 82.531795 148.963061 
L 84.040143 149.784895 
L 85.54849 150.458211 
L 87.056837 150.955363 
L 88.565185 151.272471 
L 90.073532 151.39157 
L 91.581879 151.335188 
L 93.090227 151.085739 
L 94.598574 150.669489 
L 97.615268 149.493086 
L 100.631963 147.964094 
L 103.648658 146.159805 
L 106.665352 144.029318 
L 111.190394 140.432975 
L 118.732131 134.074834 
L 127.782215 125.997392 
L 133.815604 120.252674 
L 139.848993 114.172653 
L 144.374035 109.58795 
L 154.932466 99.376366 
L 165.490898 88.42401 
L 173.032634 80.677772 
L 177.557676 76.218762 
L 186.60776 67.413543 
L 197.166191 58.027528 
L 200.182886 55.795211 
L 203.199581 53.884493 
L 206.216275 52.232224 
L 209.23297 50.849874 
L 213.758012 49.18129 
L 218.283054 47.790683 
L 224.316443 46.348548 
L 230.349832 45.287301 
L 239.399916 44.144354 
L 248.45 43.470522 
L 248.45 43.470522 
" clip-path="url(#pf2715fe485)" style="fill: none; stroke: #1f77b4; stroke-opacity: 0.68; stroke-width: 0.7; stroke-linecap: square"/>
   </g>
   <g id="line2d_14">
    <path d="M 23.70625 101.037246 
L 26.722945 101.23685 
L 29.739639 101.726112 
L 32.756334 102.522589 
L 35.773029 103.645645 
L 38.789723 105.110569 
L 41.806418 106.932508 
L 44.823112 109.110562 
L 47.839807 111.645173 
L 50.856502 114.534675 
L 53.873196 117.781234 
L 71.973364 137.938604 
L 85.54849 151.880918 
L 88.565185 154.438433 
L 90.073532 155.522306 
L 91.581879 156.420511 
L 93.090227 157.157307 
L 94.598574 157.662024 
L 96.106921 157.930133 
L 97.615268 157.978424 
L 99.123616 157.824269 
L 100.631963 157.49048 
L 102.14031 156.996894 
L 103.648658 156.359426 
L 106.665352 154.690474 
L 109.682047 152.590461 
L 112.698742 150.235831 
L 117.223784 146.415389 
L 121.748826 142.338472 
L 127.782215 136.617271 
L 133.815604 130.542792 
L 139.848993 124.164002 
L 144.374035 119.377478 
L 154.932466 108.704738 
L 177.557676 84.740527 
L 186.60776 75.678801 
L 197.166191 66.018595 
L 200.182886 63.718128 
L 203.199581 61.748735 
L 206.216275 60.043005 
L 209.23297 58.614161 
L 213.758012 56.888293 
L 216.774706 55.922903 
L 219.791401 55.049788 
L 224.316443 53.957203 
L 230.349832 52.85833 
L 239.399916 51.673916 
L 248.45 50.974602 
L 248.45 50.974602 
" clip-path="url(#pf2715fe485)" style="fill: none; stroke: #aec7e8; stroke-opacity: 0.68; stroke-width: 0.7; stroke-linecap: square"/>
   </g>
   <g id="line2d_15">
    <path d="M 23.70625 93.37789 
L 26.722945 93.588034 
L 29.739639 94.104376 
L 32.756334 94.942965 
L 35.773029 96.120629 
L 38.789723 97.649962 
L 41.806418 99.543101 
L 44.823112 101.798628 
L 47.839807 104.416327 
L 50.856502 107.394495 
L 53.873196 110.733684 
L 73.481711 133.089054 
L 78.006753 138.07256 
L 85.54849 146.477051 
L 90.073532 151.350919 
L 94.598574 155.716465 
L 96.106921 156.950939 
L 97.615268 158.03975 
L 99.123616 158.98214 
L 100.631963 159.757776 
L 102.14031 160.359806 
L 103.648658 160.778068 
L 105.157005 161.024201 
L 106.665352 161.088408 
L 108.1737 160.901267 
L 109.682047 160.472395 
L 111.190394 159.830185 
L 114.207089 158.008244 
L 117.223784 155.69424 
L 120.240478 153.071598 
L 124.76552 148.818458 
L 129.290562 144.257946 
L 136.832299 136.206382 
L 145.882383 126.382757 
L 159.457508 111.898582 
L 177.557676 92.302077 
L 186.60776 83.036431 
L 197.166191 73.148489 
L 200.182886 70.78938 
L 203.199581 68.769125 
L 206.216275 67.016134 
L 209.23297 65.545635 
L 213.758012 63.768053 
L 216.774706 62.773456 
L 219.791401 61.873835 
L 224.316443 60.74766 
L 230.349832 59.614373 
L 239.399916 58.391797 
L 248.45 57.668807 
L 248.45 57.668807 
" clip-path="url(#pf2715fe485)" style="fill: none; stroke: #ff7f0e; stroke-opacity: 0.68; stroke-width: 0.7; stroke-linecap: square"/>
   </g>
   <g id="line2d_16">
    <path d="M 23.70625 53.711804 
L 26.722945 53.903196 
L 29.739639 54.371766 
L 32.756334 55.136969 
L 35.773029 56.220611 
L 38.789723 57.64068 
L 41.806418 59.415253 
L 44.823112 61.54493 
L 47.839807 64.031682 
L 50.856502 66.87524 
L 53.873196 70.079607 
L 68.956669 86.878451 
L 71.973364 90.175606 
L 76.498406 94.994523 
L 85.54849 104.754391 
L 90.073532 109.377259 
L 94.598574 113.642224 
L 97.615268 116.206445 
L 102.14031 119.765932 
L 108.1737 124.497062 
L 120.240478 134.104123 
L 124.76552 137.415732 
L 129.290562 140.408202 
L 132.307257 142.066773 
L 135.323951 143.372653 
L 138.340646 144.265897 
L 139.848993 144.545259 
L 142.865688 144.746804 
L 145.882383 144.580823 
L 148.899077 144.106971 
L 151.915772 143.341502 
L 154.932466 142.294481 
L 157.949161 140.862614 
L 160.965856 139.129591 
L 163.98255 137.14778 
L 168.507592 133.839059 
L 177.557676 126.656044 
L 185.099413 120.361979 
L 194.149497 112.926113 
L 197.166191 110.59792 
L 200.182886 108.524806 
L 203.199581 106.737013 
L 206.216275 105.184156 
L 209.23297 103.880306 
L 213.758012 102.299719 
L 218.283054 100.976225 
L 224.316443 99.598393 
L 230.349832 98.581322 
L 239.399916 97.483335 
L 248.45 96.835377 
L 248.45 96.835377 
" clip-path="url(#pf2715fe485)" style="fill: none; stroke: #ffbb78; stroke-opacity: 0.68; stroke-width: 0.7; stroke-linecap: square"/>
   </g>
   <g id="line2d_17">
    <path d="M 23.70625 47.179558 
L 26.722945 47.379808 
L 29.739639 47.870868 
L 32.756334 48.671232 
L 35.773029 49.801058 
L 38.789723 51.276545 
L 41.806418 53.113803 
L 44.823112 55.312965 
L 47.839807 57.875478 
L 50.856502 60.800927 
L 53.873196 64.092296 
L 82.531795 96.424666 
L 90.073532 104.76096 
L 96.106921 110.914871 
L 100.631963 115.05265 
L 106.665352 120.505517 
L 130.798909 144.02356 
L 135.323951 147.816083 
L 138.340646 149.999936 
L 141.357341 151.773651 
L 142.865688 152.456721 
L 144.374035 152.994357 
L 147.39073 153.698619 
L 148.899077 153.860579 
L 150.407424 153.900081 
L 151.915772 153.802781 
L 153.424119 153.58122 
L 154.932466 153.235515 
L 156.440814 152.736891 
L 157.949161 152.080697 
L 160.965856 150.410339 
L 163.98255 148.353939 
L 168.507592 144.777973 
L 174.540982 139.510176 
L 185.099413 130.048108 
L 192.641149 123.336402 
L 197.166191 119.549171 
L 200.182886 117.326705 
L 203.199581 115.413058 
L 206.216275 113.74842 
L 209.23297 112.349348 
L 213.758012 110.653483 
L 218.283054 109.23486 
L 224.316443 107.758718 
L 230.349832 106.669168 
L 239.399916 105.492303 
L 248.45 104.796477 
L 248.45 104.796477 
" clip-path="url(#pf2715fe485)" style="fill: none; stroke: #2ca02c; stroke-opacity: 0.68; stroke-width: 0.7; stroke-linecap: square"/>
   </g>
   <g id="line2d_18">
    <path d="M 23.70625 39.843524 
L 26.722945 40.050471 
L 29.739639 40.558615 
L 32.756334 41.385408 
L 35.773029 42.549304 
L 38.789723 44.064623 
L 41.806418 45.945377 
L 44.823112 48.190966 
L 47.839807 50.801955 
L 50.856502 53.777286 
L 53.873196 57.118364 
L 74.990059 81.235799 
L 93.090227 101.688474 
L 96.106921 104.864105 
L 102.14031 110.71318 
L 106.665352 115.183388 
L 117.223784 126.618927 
L 138.340646 149.554563 
L 141.357341 152.554398 
L 144.374035 155.206354 
L 147.39073 157.471831 
L 150.407424 159.330381 
L 151.915772 160.037689 
L 153.424119 160.565036 
L 154.932466 160.932356 
L 156.440814 161.064656 
L 157.949161 160.886593 
L 159.457508 160.443386 
L 160.965856 159.728229 
L 162.474203 158.845946 
L 165.490898 156.601932 
L 168.507592 153.99146 
L 173.032634 149.710712 
L 183.591065 139.49119 
L 194.149497 129.58521 
L 197.166191 126.942175 
L 200.182886 124.592725 
L 203.199581 122.572375 
L 206.216275 120.811157 
L 209.23297 119.328834 
L 213.758012 117.531801 
L 216.774706 116.524209 
L 219.791401 115.611621 
L 224.316443 114.46757 
L 230.349832 113.314323 
L 239.399916 112.067733 
L 246.941653 111.440477 
L 248.45 111.329071 
L 248.45 111.329071 
" clip-path="url(#pf2715fe485)" style="fill: none; stroke: #98df8a; stroke-opacity: 0.68; stroke-width: 0.7; stroke-linecap: square"/>
   </g>
   <g id="line2d_19">
    <path d="M 23.70625 25.674307 
L 26.722945 25.865309 
L 29.739639 26.333259 
L 32.756334 27.098096 
L 35.773029 28.182308 
L 38.789723 29.604394 
L 41.806418 31.382765 
L 44.823112 33.518408 
L 47.839807 36.01367 
L 50.856502 38.868688 
L 53.873196 42.08776 
L 67.448322 57.294267 
L 71.973364 62.322525 
L 76.498406 67.187765 
L 88.565185 80.32212 
L 93.090227 84.914728 
L 96.106921 87.786001 
L 100.631963 91.757936 
L 106.665352 97.009179 
L 115.715436 105.681303 
L 135.323951 124.759971 
L 139.848993 128.779921 
L 142.865688 131.254026 
L 147.39073 134.571725 
L 151.915772 137.637353 
L 156.440814 140.442812 
L 159.457508 142.043752 
L 162.474203 143.278616 
L 165.490898 144.149201 
L 168.507592 144.611371 
L 171.524287 144.699541 
L 174.540982 144.410831 
L 177.557676 143.816451 
L 180.574371 142.905259 
L 183.591065 141.725221 
L 186.60776 140.342301 
L 189.624455 138.786337 
L 194.149497 136.209715 
L 198.674539 133.60805 
L 201.691233 132.056873 
L 206.216275 130.06197 
L 209.23297 128.959866 
L 213.758012 127.602857 
L 218.283054 126.448504 
L 224.316443 125.232009 
L 230.349832 124.325584 
L 239.399916 123.340327 
L 248.45 122.756695 
L 248.45 122.756695 
" clip-path="url(#pf2715fe485)" style="fill: none; stroke: #d62728; stroke-opacity: 0.68; stroke-width: 0.7; stroke-linecap: square"/>
   </g>
   <g id="line2d_20">
    <path d="M 23.70625 19.758437 
L 26.722945 19.956215 
L 29.739639 20.441329 
L 32.756334 21.232943 
L 35.773029 22.352226 
L 38.789723 23.816231 
L 41.806418 25.641783 
L 44.823112 27.829376 
L 47.839807 30.380797 
L 50.856502 33.295872 
L 53.873196 36.577911 
L 68.956669 53.785009 
L 71.973364 57.166788 
L 76.498406 62.110012 
L 90.073532 77.240038 
L 96.106921 83.46014 
L 102.14031 89.067254 
L 106.665352 93.33888 
L 115.715436 102.727625 
L 127.782215 115.661406 
L 135.323951 123.728681 
L 141.357341 129.967037 
L 144.374035 132.862217 
L 157.949161 144.996509 
L 160.965856 147.413406 
L 163.98255 149.571546 
L 166.999245 151.381706 
L 170.01594 152.703106 
L 171.524287 153.168531 
L 173.032634 153.515442 
L 174.540982 153.70374 
L 176.049329 153.748606 
L 177.557676 153.672381 
L 179.066023 153.471384 
L 180.574371 153.138991 
L 183.591065 152.151924 
L 186.60776 150.793616 
L 189.624455 149.131043 
L 192.641149 147.233969 
L 200.182886 142.391178 
L 203.199581 140.735372 
L 206.216275 139.262888 
L 209.23297 138.006681 
L 213.758012 136.462671 
L 218.283054 135.153788 
L 224.316443 133.778216 
L 230.349832 132.75525 
L 239.399916 131.644213 
L 248.45 130.98505 
L 248.45 130.98505 
" clip-path="url(#pf2715fe485)" style="fill: none; stroke: #ff9896; stroke-opacity: 0.68; stroke-width: 0.7; stroke-linecap: square"/>
   </g>
   <g id="line2d_21">
    <path d="M 23.70625 13.274352 
L 26.722945 13.477657 
L 29.739639 13.976821 
L 32.756334 14.79019 
L 35.773029 15.93759 
L 38.789723 17.434599 
L 41.806418 19.296406 
L 44.823112 21.522904 
L 47.839807 24.115174 
L 50.856502 27.072526 
L 53.873196 30.397064 
L 78.006753 57.871257 
L 84.040143 64.729652 
L 90.073532 71.549647 
L 96.106921 77.989143 
L 102.14031 83.832324 
L 106.665352 88.313413 
L 115.715436 98.164481 
L 127.782215 111.687581 
L 139.848993 125.275286 
L 144.374035 130.152793 
L 154.932466 140.902833 
L 160.965856 147.289203 
L 165.490898 151.84314 
L 168.507592 154.577328 
L 171.524287 157.048424 
L 173.032634 158.158217 
L 174.540982 159.104129 
L 176.049329 159.867074 
L 177.557676 160.444635 
L 179.066023 160.861972 
L 180.574371 161.086197 
L 182.082718 161.083609 
L 183.591065 160.859023 
L 185.099413 160.423096 
L 186.60776 159.776884 
L 188.116107 158.995646 
L 191.132802 157.025728 
L 200.182886 150.314991 
L 203.199581 148.428681 
L 206.216275 146.753041 
L 209.23297 145.327055 
L 213.758012 143.582816 
L 216.774706 142.598061 
L 219.791401 141.70296 
L 224.316443 140.576716 
L 230.349832 139.437628 
L 239.399916 138.202538 
L 246.941653 137.579611 
L 248.45 137.468858 
L 248.45 137.468858 
" clip-path="url(#pf2715fe485)" style="fill: none; stroke: #9467bd; stroke-opacity: 0.68; stroke-width: 0.7; stroke-linecap: square"/>
   </g>
   <g id="line2d_22">
    <path d="M 23.70625 161.20375 
L 248.45 161.20375 
" clip-path="url(#pf2715fe485)" style="fill: none; stroke-dasharray: 2.59,1.12; stroke-dashoffset: 0; stroke: #767676; stroke-opacity: 0.65; stroke-width: 0.7"/>
   </g>
   <g id="patch_3">
    <path d="M 23.70625 161.20375 
L 23.70625 1.44 
" style="fill: none; stroke: #000000; stroke-width: 0.6; stroke-linejoin: miter; stroke-linecap: square"/>
   </g>
   <g id="patch_4">
    <path d="M 23.70625 161.20375 
L 248.45 161.20375 
" style="fill: none; stroke: #000000; stroke-width: 0.6; stroke-linejoin: miter; stroke-linecap: square"/>
   </g>
   <g id="line2d_23">
    <path d="M 23.70625 107.285094 
L 26.722945 107.467445 
L 29.739639 107.912753 
L 32.756334 108.639607 
L 35.773029 109.669285 
L 38.789723 111.018861 
L 41.806418 112.705109 
L 44.823112 114.725429 
L 47.839807 117.077801 
L 50.856502 119.756103 
L 53.873196 122.757963 
L 64.431628 133.494628 
L 70.465017 139.359051 
L 74.990059 143.265173 
L 78.006753 145.780229 
L 81.023448 147.995488 
L 82.531795 148.972808 
L 85.54849 151.880918 
L 88.565185 154.438433 
L 90.073532 155.522306 
L 91.581879 156.420511 
L 93.090227 157.157307 
L 94.598574 157.662024 
L 96.106921 157.930133 
L 97.615268 158.03975 
L 99.123616 158.98214 
L 100.631963 159.757776 
L 102.14031 160.359806 
L 103.648658 160.778068 
L 105.157005 161.024201 
L 106.665352 161.088408 
L 108.1737 160.901267 
L 109.682047 160.472395 
L 111.190394 159.830185 
L 114.207089 158.008244 
L 117.223784 155.69424 
L 120.240478 153.071598 
L 124.76552 148.818458 
L 129.290562 144.257946 
L 130.798909 144.02356 
L 135.323951 147.816083 
L 138.340646 149.999936 
L 139.848993 151.077293 
L 142.865688 153.93941 
L 145.882383 156.35743 
L 148.899077 158.45203 
L 150.407424 159.330381 
L 151.915772 160.037689 
L 153.424119 160.565036 
L 154.932466 160.932356 
L 156.440814 161.064656 
L 157.949161 160.886593 
L 159.457508 160.443386 
L 160.965856 159.728229 
L 162.474203 158.845946 
L 165.490898 156.601932 
L 166.999245 155.316965 
L 168.507592 154.577328 
L 171.524287 157.048424 
L 173.032634 158.158217 
L 174.540982 159.104129 
L 176.049329 159.867074 
L 177.557676 160.444635 
L 179.066023 160.861972 
L 180.574371 161.086197 
L 182.082718 161.083609 
L 183.591065 160.859023 
L 185.099413 160.423096 
L 186.60776 159.776884 
L 188.116107 158.995646 
L 191.132802 157.025728 
L 200.182886 150.314991 
L 203.199581 148.428681 
L 206.216275 146.753041 
L 209.23297 145.327055 
L 213.758012 143.582816 
L 216.774706 142.598061 
L 219.791401 141.70296 
L 224.316443 140.576716 
L 230.349832 139.437628 
L 239.399916 138.202538 
L 246.941653 137.579611 
L 248.45 137.468858 
L 248.45 137.468858 
" clip-path="url(#pf2715fe485)" style="fill: none; stroke: #1b3a5c; stroke-width: 0.9; stroke-linecap: square"/>
   </g>
   <g id="patch_5">
    <path d="M 117.365783 154.116443 
Q 112.852845 157.05689 108.901951 159.631131 
" style="fill: none; opacity: 0.7; stroke: #b64342; stroke-width: 0.6; stroke-linecap: round"/>
    <path d="M 111.79003 159.300975 
L 108.901951 159.631131 
L 110.370673 157.122575 
" style="fill: none; opacity: 0.7; stroke: #b64342; stroke-width: 0.6; stroke-linecap: round"/>
   </g>
   <g id="text_15">
    <text style="font-weight: 700; font-size: 6.5px; font-family: 'Times New Roman', 'Times', 'STIXGeneral', serif; text-anchor: start; fill: #b64342" x="116.665352" y="149.088408" transform="rotate(-0 116.665352 149.088408)">0.011 m</text>
   </g>
   <g id="legend_1">
    <g id="patch_6">
     <path d="M 156.696406 40.48875 
L 245.2 40.48875 
L 245.2 4.69 
L 156.696406 4.69 
z
" style="fill: #ffffff; opacity: 0.8; stroke: #cfcece; stroke-linejoin: miter"/>
    </g>
    <g id="line2d_24">
     <defs>
      <path id="mbd75680d5b" d="M 0 2.5 
C 0.663008 2.5 1.29895 2.236584 1.767767 1.767767 
C 2.236584 1.29895 2.5 0.663008 2.5 0 
C 2.5 -0.663008 2.236584 -1.29895 1.767767 -1.767767 
C 1.29895 -2.236584 0.663008 -2.5 0 -2.5 
C -0.663008 -2.5 -1.29895 -2.236584 -1.767767 -1.767767 
C -2.236584 -1.29895 -2.5 -0.663008 -2.5 0 
C -2.5 0.663008 -2.236584 1.29895 -1.767767 1.767767 
C -1.29895 2.236584 -0.663008 2.5 0 2.5 
z
" style="stroke: #ffffff; stroke-width: 0.4"/>
     </defs>
     <g>
      <use xlink:href="#mbd75680d5b" x="163.521406" y="9.565" style="fill: #b64342; stroke: #ffffff; stroke-width: 0.4"/>
     </g>
    </g>
    <g id="text_16">
     <text style="font-size: 6.5px; font-family: 'Times New Roman', 'Times', 'STIXGeneral', serif; text-anchor: start" x="170.996406" y="11.84" transform="rotate(-0 170.996406 11.84)">Closest approach (0.011 m)</text>
    </g>
    <g id="line2d_25">
     <path d="M 159.296406 17.780391 
L 163.521406 17.780391 
L 167.746406 17.780391 
" style="fill: none; stroke: #1b3a5c; stroke-width: 0.9; stroke-linecap: square"/>
    </g>
    <g id="text_17">
     <text style="font-size: 6.5px; font-family: 'Times New Roman', 'Times', 'STIXGeneral', serif; text-anchor: start" x="170.996406" y="20.055391" transform="rotate(-0 170.996406 20.055391)">Worst-case clearance</text>
    </g>
    <g id="line2d_26">
     <path d="M 159.296406 25.995781 
L 163.521406 25.995781 
L 167.746406 25.995781 
" style="fill: none; stroke: #595959; stroke-opacity: 0.9; stroke-width: 0.8; stroke-linecap: square"/>
    </g>
    <g id="text_18">
     <text style="font-size: 6.5px; font-family: 'Times New Roman', 'Times', 'STIXGeneral', serif; text-anchor: start" x="170.996406" y="28.270781" transform="rotate(-0 170.996406 28.270781)">Distance to obstacle</text>
    </g>
    <g id="line2d_27">
     <path d="M 159.296406 34.211172 
L 163.521406 34.211172 
L 167.746406 34.211172 
" style="fill: none; stroke-dasharray: 2.59,1.12; stroke-dashoffset: 0; stroke: #767676; stroke-opacity: 0.65; stroke-width: 0.7"/>
    </g>
    <g id="text_19">
     <text style="font-size: 6.5px; font-family: 'Times New Roman', 'Times', 'STIXGeneral', serif; text-anchor: start" x="170.996406" y="36.486172" transform="rotate(-0 170.996406 36.486172)">Collision boundary</text>
    </g>
   </g>
   <g id="PathCollection_1">
    <defs>
     <path id="md0fc8d0a33" d="M 0 2.345208 
C 0.621956 2.345208 1.218523 2.098102 1.658312 1.658312 
C 2.098102 1.218523 2.345208 0.621956 2.345208 0 
C 2.345208 -0.621956 2.098102 -1.218523 1.658312 -1.658312 
C 1.218523 -2.098102 0.621956 -2.345208 0 -2.345208 
C -0.621956 -2.345208 -1.218523 -2.098102 -1.658312 -1.658312 
C -2.098102 -1.218523 -2.345208 -0.621956 -2.345208 0 
C -2.345208 0.621956 -2.098102 1.218523 -1.658312 1.658312 
C -1.218523 2.098102 -0.621956 2.345208 0 2.345208 
z
" style="stroke: #ffffff; stroke-width: 0.5"/>
    </defs>
    <g clip-path="url(#pf2715fe485)">
     <use xlink:href="#md0fc8d0a33" x="106.665352" y="161.088408" style="fill: #b64342; stroke: #ffffff; stroke-width: 0.5"/>
    </g>
   </g>
  </g>
 </g>
 <defs>
  <clipPath id="pf2715fe485">
   <rect x="23.70625" y="1.44" width="224.74375" height="159.76375"/>
  </clipPath>
 </defs>
</svg>
